<svg width="344" height="344" viewBox="0 0 344 344" fill="none" xmlns="http://www.w3.org/2000/svg">
<path fill-rule="evenodd" clip-rule="evenodd" d="M343.416 186.273C336.161 274.589 262.187 344 172 344C77.007 344 0 266.993 0 172C0 77.007 77.007 0 172 0C232.679 0 286.019 31.4213 316.637 78.8808L282.622 94.0255C258.207 58.9388 217.763 36 172 36C97.4416 36 37 96.8893 37 172C37 247.111 97.4416 308 172 308C235.554 308 288.85 263.759 303.199 204.179L343.416 186.273Z" fill="#6D67E4"/>
<rect x="307" y="344" width="159" height="36" transform="rotate(-90 307 344)" fill="#46C2CB"/>
<rect x="184" y="167" width="159" height="36" fill="#46C2CB"/>
</svg>
